# xmcd
#
# Track frame offsets:
#	150
#	12172
#	24537
#	33773
#	43609
#	55972
#	67465
#	79991
#	93095
#	106800
#	118791
#	130137
#	141567
#	152706
#	169659
#	181744
#	195169
#	205442
#	216150
#	229906
#
# Disc length: 3213 seconds
#
# Revision: 1
# Processed by: cddbd v1.5.2PL0 Copyright (c) Steve Scherf et al.
# Submitted via: audiograbber 1.83.01
#
DISCID=160c8b14
DTITLE=Wanda Jackson - The Famous Wanda Jackson CD16
DYEAR=2012
DGENRE=Country
TTITLE0=Try Me One More Time
TTITLE1=Trying To Get To You
TTITLE2=Tuck Away My Lonesome Blues
TTITLE3=Tunnel Of Love
TTITLE4=Tweedle Dee
TTITLE5=Two Separate Barstools
TTITLE6=Two Wrongs Don't Make A Right
TTITLE7=Violet and The Rose
TTITLE8=Vom Winde Vewht
TTITLE9=Wabash Cannonball
TTITLE10=Walk On Out Of My Mind
TTITLE11=Walk Right In
TTITLE12=Walk Through This World With Me
TTITLE13=Walk With Me
TTITLE14=Warm Red Wine
TTITLE15=Warum Gleich Tränen
TTITLE16=Was Hat Man Denn Bloss Von Einem Mann
TTITLE17=Wasted
TTITLE18=We Could
TTITLE19=We Haven´t A Moment To Lose
EXTD=
EXTT0=
EXTT1=
EXTT2=
EXTT3=
EXTT4=
EXTT5=
EXTT6=
EXTT7=
EXTT8=
EXTT9=
EXTT10=
EXTT11=
EXTT12=
EXTT13=
EXTT14=
EXTT15=
EXTT16=
EXTT17=
EXTT18=
EXTT19=
PLAYORDER=
